<mxfile host="app.diagrams.net" modified="2021-01-20T21:24:42.309Z" agent="5.0 (Windows NT 10.0; Win64; x64) AppleWebKit/537.36 (KHTML, like Gecko) Chrome/87.0.4280.141 Safari/537.36 Edg/87.0.664.75" etag="Okc1fiacmXo4GU-bbI8G" version="14.2.6" type="github">
  <diagram id="Co06z8hA1GL9u4y0MS8U" name="Page-1">
    <mxGraphModel dx="2966" dy="1969" grid="1" gridSize="10" guides="1" tooltips="1" connect="1" arrows="1" fold="1" page="1" pageScale="1" pageWidth="2336" pageHeight="1654" math="0" shadow="0">
      <root>
        <mxCell id="0" />
        <mxCell id="1" parent="0" />
        <mxCell id="5Cc1_OLVSoVf95-COUrq-5" value="" style="shape=cube;whiteSpace=wrap;html=1;boundedLbl=1;backgroundOutline=1;darkOpacity=0.05;darkOpacity2=0.1;size=10;" vertex="1" parent="1">
          <mxGeometry x="40" y="712" width="80" height="200" as="geometry" />
        </mxCell>
        <mxCell id="5Cc1_OLVSoVf95-COUrq-7" value="" style="shape=cube;whiteSpace=wrap;html=1;boundedLbl=1;backgroundOutline=1;darkOpacity=0.05;darkOpacity2=0.1;size=20;" vertex="1" parent="1">
          <mxGeometry x="140" y="737" width="60" height="150" as="geometry" />
        </mxCell>
        <mxCell id="5Cc1_OLVSoVf95-COUrq-8" value="" style="shape=cube;whiteSpace=wrap;html=1;boundedLbl=1;backgroundOutline=1;darkOpacity=0.05;darkOpacity2=0.1;size=30;" vertex="1" parent="1">
          <mxGeometry x="220" y="750.75" width="60" height="105" as="geometry" />
        </mxCell>
        <mxCell id="5Cc1_OLVSoVf95-COUrq-10" value="" style="shape=cube;whiteSpace=wrap;html=1;boundedLbl=1;backgroundOutline=1;darkOpacity=0.05;darkOpacity2=0.1;size=40;" vertex="1" parent="1">
          <mxGeometry x="300" y="774.5" width="80" height="80" as="geometry" />
        </mxCell>
        <mxCell id="5Cc1_OLVSoVf95-COUrq-11" value="" style="shape=cube;whiteSpace=wrap;html=1;boundedLbl=1;backgroundOutline=1;darkOpacity=0.05;darkOpacity2=0.1;size=100;" vertex="1" parent="1">
          <mxGeometry x="360" y="744.5" width="125" height="117.5" as="geometry" />
        </mxCell>
        <mxCell id="5Cc1_OLVSoVf95-COUrq-12" value="" style="shape=cube;whiteSpace=wrap;html=1;boundedLbl=1;backgroundOutline=1;darkOpacity=0.05;darkOpacity2=0.1;size=40;" vertex="1" parent="1">
          <mxGeometry x="490" y="712" width="60" height="75" as="geometry" />
        </mxCell>
        <mxCell id="5Cc1_OLVSoVf95-COUrq-13" value="" style="shape=cube;whiteSpace=wrap;html=1;boundedLbl=1;backgroundOutline=1;darkOpacity=0.05;darkOpacity2=0.1;size=40;" vertex="1" parent="1">
          <mxGeometry x="490" y="872" width="60" height="75" as="geometry" />
        </mxCell>
        <mxCell id="5Cc1_OLVSoVf95-COUrq-14" value="" style="shape=cube;whiteSpace=wrap;html=1;boundedLbl=1;backgroundOutline=1;darkOpacity=0.05;darkOpacity2=0.1;size=30;" vertex="1" parent="1">
          <mxGeometry x="570" y="664.5" width="60" height="110" as="geometry" />
        </mxCell>
        <mxCell id="5Cc1_OLVSoVf95-COUrq-15" value="" style="shape=cube;whiteSpace=wrap;html=1;boundedLbl=1;backgroundOutline=1;darkOpacity=0.05;darkOpacity2=0.1;size=30;" vertex="1" parent="1">
          <mxGeometry x="570" y="887" width="60" height="110" as="geometry" />
        </mxCell>
        <mxCell id="5Cc1_OLVSoVf95-COUrq-16" value="" style="shape=cube;whiteSpace=wrap;html=1;boundedLbl=1;backgroundOutline=1;darkOpacity=0.05;darkOpacity2=0.1;size=20;" vertex="1" parent="1">
          <mxGeometry x="660" y="587" width="60" height="150" as="geometry" />
        </mxCell>
        <mxCell id="5Cc1_OLVSoVf95-COUrq-17" value="" style="shape=cube;whiteSpace=wrap;html=1;boundedLbl=1;backgroundOutline=1;darkOpacity=0.05;darkOpacity2=0.1;size=20;" vertex="1" parent="1">
          <mxGeometry x="660" y="922" width="60" height="150" as="geometry" />
        </mxCell>
        <mxCell id="5Cc1_OLVSoVf95-COUrq-18" value="" style="shape=cube;whiteSpace=wrap;html=1;boundedLbl=1;backgroundOutline=1;darkOpacity=0.05;darkOpacity2=0.1;size=10;" vertex="1" parent="1">
          <mxGeometry x="760" y="502" width="80" height="200" as="geometry" />
        </mxCell>
        <mxCell id="5Cc1_OLVSoVf95-COUrq-19" value="" style="shape=cube;whiteSpace=wrap;html=1;boundedLbl=1;backgroundOutline=1;darkOpacity=0.05;darkOpacity2=0.1;size=10;" vertex="1" parent="1">
          <mxGeometry x="760" y="952" width="80" height="200" as="geometry" />
        </mxCell>
        <mxCell id="5Cc1_OLVSoVf95-COUrq-21" value="" style="rounded=0;whiteSpace=wrap;html=1;" vertex="1" parent="1">
          <mxGeometry x="980" y="1030" width="220" height="70" as="geometry" />
        </mxCell>
      </root>
    </mxGraphModel>
  </diagram>
</mxfile>
